# xmcd
#
# Track frame offsets:
#	150
#	18795
#	31018
#	45726
#	62132
#	76541
#	91959
#	105459
#	118957
#	135318
#	153249
#	166732
#	181898
#	200124
#	219696
#	235702
#	249382
#	263384
#	273368
#	290497
#	304270
#	324390
#	336585
#
# Disc length: 4740 seconds
#
# Revision: 1
# Processed by: cddbd v1.5.2PL0 Copyright (c) Steve Scherf et al.
# Submitted via: audiograbber 1.83.01
#
DISCID=33128217
DTITLE=Glenn Erickson - Diamondback Records Compilation 017
DYEAR=2016
DGENRE=
TTITLE0=That´s All Behinde Me Now -Allen Karl
TTITLE1=Texas Country Boy -B. Jeff Stone
TTITLE2=Mirror Mirror In My Mind -Donna Cunningham
TTITLE3=Two Thousand Years From Now -The Long and The Short Of It
TTITLE4=No Time Like The Present -Davisd Star
TTITLE5=Please Don´t Tell Me How The Story Ends -Allan Karl and Donna Cunningham
TTITLE6=Little Stone -Bob Runk
TTITLE7=Promise Me Baby -John Dickie
TTITLE8=Feelin´ The Pain -Makky Kaylor
TTITLE9=Somwhere In The Middle Of The Night -Terry Gorka
TTITLE10=Passing Through -Peter Trenholm
TTITLE11=My Own Backyard -Phillip Clarkson
TTITLE12=Without A Sound -Mitch Snow
TTITLE13=Dark Eyed Cajun Woman -Jim Venable
TTITLE14=Tarnaki Waltz -Gail Russell
TTITLE15=Here´s To Life -Glenn Erickson
TTITLE16=Ride Cowboy Ride -Rex Allen
TTITLE17=When The Big One Comes -Ryan Somerville
TTITLE18=Sourthern Queen -Bryan Chalker
TTITLE19=You´re All Over Me -Bruce Graves
TTITLE20=I Lost My Vife To E-Bay -David Spires
TTITLE21=Thr Old Country Store -Ray R, Jones
TTITLE22=My Life -Glenn Erickson
EXTD=
EXTT0=
EXTT1=
EXTT2=
EXTT3=
EXTT4=
EXTT5=
EXTT6=
EXTT7=
EXTT8=
EXTT9=
EXTT10=
EXTT11=
EXTT12=
EXTT13=
EXTT14=
EXTT15=
EXTT16=
EXTT17=
EXTT18=
EXTT19=
EXTT20=
EXTT21=
EXTT22=
PLAYORDER=
